<svg xmlns="http://www.w3.org/2000/svg" width="470" height="306" viewBox="0 0 470 306" version="1.1"><path d="M 423.535 38.019 C 407.020 53.568, 406.498 54.183, 403.844 61.245 C 402.344 65.235, 401.091 69.259, 401.058 70.186 C 401.013 71.486, 405.402 69.725, 420.250 62.484 L 439.500 53.097 440.260 43.799 C 440.678 38.684, 440.903 31.698, 440.760 28.274 L 440.500 22.048 423.535 38.019 M 422.315 77.436 L 400.131 83.500 397.387 89.238 C 395.878 92.394, 394.886 95.219, 395.182 95.515 C 395.930 96.263, 450.833 104.503, 451.375 103.949 C 451.893 103.421, 445.735 72.335, 445 71.761 C 444.725 71.547, 434.517 74.100, 422.315 77.436 M 24.051 98.276 C 22.889 103.378, 21.839 108.851, 21.719 110.438 L 21.500 113.324 43 118.116 C 54.825 120.751, 65.239 122.928, 66.142 122.954 C 67.653 122.996, 67.645 122.552, 66.048 117.390 L 64.312 111.780 45.910 100.390 C 35.788 94.126, 27.205 89, 26.836 89 C 26.466 89, 25.213 93.174, 24.051 98.276 M 398.646 122.725 C 397.037 132.458, 396.529 131.766, 412.664 141.798 C 420.729 146.812, 427.671 150.703, 428.090 150.444 C 429.365 149.656, 442.382 130.048, 441.926 129.601 C 441.692 129.372, 432.725 127.105, 422 124.563 C 411.275 122.021, 401.773 119.719, 400.885 119.446 C 399.659 119.070, 399.119 119.860, 398.646 122.725 M 47.500 140.145 C 38.150 143.473, 30.336 146.353, 30.136 146.546 C 29.407 147.246, 33.381 175, 34.210 175 C 35.387 175, 75 143.133, 75 142.186 C 75 141.215, 66.391 133.984, 65.310 134.047 C 64.864 134.073, 56.850 136.817, 47.500 140.145 M 361 134.383 C 361 134.594, 361.900 135.002, 363 135.290 C 364.100 135.577, 365 135.405, 365 134.906 C 365 134.408, 364.100 134, 363 134 C 361.900 134, 361 134.173, 361 134.383 M 75 173.129 C 67.575 179.228, 60.440 185.058, 59.144 186.086 L 56.788 187.955 66.480 198.977 C 71.811 205.040, 76.356 210, 76.582 210 C 77.146 210, 98 168.238, 98 167.108 C 98 166.028, 91.408 161.991, 89.693 162.021 C 89.037 162.032, 82.425 167.031, 75 173.129" stroke="none" fill="#ececec" fill-rule="evenodd"/><path d="M 359.500 16.054 C 341.900 17.037, 325.363 17.877, 322.750 17.921 C 319.731 17.971, 318 18.443, 318 19.216 C 318 20.845, 327.021 44.164, 328.265 45.750 C 328.806 46.440, 331.393 47, 334.041 47 C 342.705 47, 342 43.506, 342 86.433 L 342 124.653 353.492 123.001 C 359.812 122.093, 365.307 121.027, 365.702 120.632 C 366.097 120.237, 367.849 104.610, 369.595 85.905 C 371.342 67.200, 373.028 51.638, 373.343 51.324 C 373.658 51.009, 378.772 51.211, 384.708 51.773 C 390.643 52.335, 395.867 52.451, 396.316 52.031 C 396.912 51.474, 399.756 22.520, 399.979 14.750 C 400.005 13.820, 398.801 13.859, 359.500 16.054 M 262.195 28.801 C 248.475 53.284, 249.659 50.264, 250.424 58.830 C 250.800 63.048, 251.341 67.400, 251.626 68.500 C 251.960 69.792, 258.308 74.188, 269.571 80.926 C 279.157 86.660, 286.996 91.610, 286.992 91.926 C 286.987 92.242, 284.318 93.889, 281.061 95.587 L 275.137 98.673 265.337 88.837 C 259.947 83.427, 255.265 79, 254.931 79 C 254.451 79, 247 105.562, 247 107.277 C 247 107.522, 251.742 113.523, 257.539 120.612 C 266.044 131.013, 268.504 133.435, 270.289 133.163 C 278.021 131.985, 313.861 124.807, 315.528 124.103 C 317.295 123.356, 317.913 120.920, 320.340 105.146 C 321.897 95.027, 322.767 86.456, 322.313 85.707 C 318.934 80.142, 308.506 66.986, 307.162 66.594 C 306.248 66.328, 299.200 64.940, 291.500 63.509 C 271.786 59.848, 273.727 61.146, 274.534 52.158 C 274.912 47.946, 275.595 44.098, 276.053 43.607 C 276.534 43.091, 282.240 44.214, 289.580 46.270 L 302.274 49.826 310.654 46.774 L 319.033 43.721 316.901 40.111 C 315.728 38.125, 312.756 33.013, 310.297 28.750 L 305.825 21 292.912 21 C 284.032 21, 280 21.350, 280 22.122 C 280 22.879, 279.593 22.924, 278.750 22.260 C 278.063 21.718, 275.153 21.011, 272.285 20.689 L 267.070 20.102 262.195 28.801 M 219.250 31.868 C 208.629 34.524, 205.004 35.822, 205.014 36.965 C 205.022 37.809, 207.035 48.582, 209.488 60.904 C 213.240 79.747, 213.863 84.515, 213.410 90.904 C 212.504 103.689, 213.457 102.700, 203.080 101.641 L 194.088 100.723 191.347 93.112 C 188.809 86.064, 188.565 84.021, 188.053 65.531 L 187.500 45.562 173.154 43.710 C 165.264 42.692, 158.592 42.074, 158.329 42.338 C 158.065 42.602, 159.945 56.021, 162.506 72.159 C 166.889 99.781, 167.548 102.643, 173.739 121 C 177.357 131.725, 180.673 140.905, 181.108 141.400 C 181.711 142.086, 226.880 135.550, 227.644 134.666 C 227.723 134.575, 230.373 127.300, 233.533 118.500 C 237.442 107.613, 240.014 98.346, 241.581 89.500 L 243.884 76.500 239.296 53 C 236.773 40.075, 234.436 29.231, 234.104 28.903 C 233.772 28.575, 227.088 29.909, 219.250 31.868 M 136.500 46.568 C 133.750 47.914, 126.628 51.256, 120.674 53.994 L 109.848 58.974 122.424 83.372 C 129.341 96.791, 135 108.434, 135 109.245 C 135 110.057, 133.201 114.614, 131.003 119.373 L 127.005 128.025 118.753 123.896 C 114.214 121.625, 110.321 119.603, 110.102 119.403 C 109.883 119.202, 111.375 115.383, 113.417 110.917 C 115.458 106.450, 116.861 102.528, 116.533 102.200 C 115.856 101.523, 80.900 100.120, 79.750 100.724 C 79.338 100.941, 79 107.571, 79 115.459 L 79 129.799 82.750 134.742 C 99.110 156.308, 106.593 164.902, 109 164.893 C 110.375 164.887, 119.571 163.194, 129.436 161.129 L 147.371 157.375 155.420 141.850 L 163.468 126.324 155.068 89.412 C 150.447 69.110, 146.255 50.587, 145.752 48.250 C 144.675 43.240, 143.673 43.058, 136.500 46.568 M 338.500 138.769 C 331.151 143.182, 330.480 143.855, 330.257 147.036 C 329.566 156.905, 326.038 256.371, 326.367 256.701 C 326.939 257.273, 351.402 253.886, 352.088 253.139 C 352.625 252.556, 352.044 240.311, 350.563 221 L 349.988 213.500 365.501 236.750 C 375.925 252.374, 381.585 259.994, 382.756 259.982 C 383.715 259.972, 388.775 259.305, 394 258.500 C 399.225 257.695, 403.848 257.028, 404.273 257.018 C 404.697 257.008, 404.922 248.833, 404.773 238.851 L 404.500 220.702 384.743 212.537 L 364.986 204.373 388.243 193.006 C 401.034 186.754, 411.571 181.608, 411.658 181.569 C 411.745 181.531, 410.602 175.434, 409.118 168.021 L 406.419 154.541 396.960 146.304 C 391.757 141.773, 387.050 138.071, 386.500 138.076 C 385.517 138.086, 365.712 168.603, 359.153 180.214 C 357.312 183.473, 355.664 185.995, 355.492 185.820 C 355.319 185.644, 357.388 174.497, 360.089 161.050 C 363.518 143.980, 364.683 136.283, 363.950 135.550 C 363.373 134.972, 359.211 134.380, 354.700 134.233 L 346.500 133.966 338.500 138.769 M 284.250 138.862 L 269 141.500 259.013 151.500 L 249.025 161.500 252.558 199 C 254.500 219.625, 256.287 237.446, 256.527 238.602 C 256.767 239.759, 260.171 244.709, 264.092 249.602 C 268.012 254.496, 271.789 259.309, 272.486 260.297 C 273.667 261.971, 275.143 261.459, 294.127 252.784 L 314.500 243.474 318.135 204.487 L 321.770 165.500 313.178 150.750 C 305.559 137.670, 304.298 136.013, 302.043 136.112 C 300.644 136.174, 292.638 137.411, 284.250 138.862 M 199.623 149.048 C 189.791 151.177, 181.614 153.053, 181.451 153.216 C 181.288 153.378, 179.066 164.654, 176.513 178.272 L 171.870 203.032 181.911 229.758 C 187.434 244.457, 192.426 256.642, 193.004 256.835 C 193.583 257.028, 198.575 259.395, 204.098 262.096 L 214.139 267.006 227.641 259.170 L 241.142 251.333 244.952 242.734 L 248.762 234.135 244.316 201.429 L 239.871 168.724 229.884 156.862 C 224.391 150.338, 219.357 145.039, 218.698 145.088 C 218.039 145.136, 209.456 146.918, 199.623 149.048 M 275.637 173.099 L 268.775 183.159 270.429 192.329 C 271.338 197.373, 273.004 206.504, 274.131 212.620 L 276.180 223.741 285.340 224.954 C 290.378 225.621, 295.512 226.404, 296.750 226.692 L 299 227.217 299 203.759 L 299 180.301 291.376 171.650 C 287.183 166.893, 283.470 163.009, 283.126 163.020 C 282.782 163.031, 279.412 167.566, 275.637 173.099 M 125.524 172.485 L 105.549 180.814 98.290 212.637 C 92.539 237.850, 91.288 244.713, 92.266 245.680 C 92.945 246.351, 103.175 255.013, 115 264.930 L 136.500 282.960 152.500 282.906 C 175.590 282.828, 175.512 282.849, 182.755 274.547 L 188.821 267.595 183.215 257.047 C 180.131 251.246, 175.951 243.424, 173.926 239.665 L 170.244 232.830 158.695 242.915 C 152.343 248.462, 146.776 252.983, 146.323 252.962 C 145.870 252.941, 141.338 247.580, 136.250 241.048 L 127 229.172 127.106 220.836 C 127.164 216.251, 127.502 208.617, 127.856 203.870 L 128.500 195.241 141.899 201.172 C 149.268 204.434, 155.599 206.742, 155.968 206.301 C 156.337 205.861, 158.373 199.738, 160.492 192.695 L 164.344 179.891 156.446 171.945 C 152.101 167.575, 147.861 164.035, 147.023 164.078 C 146.186 164.121, 136.511 167.904, 125.524 172.485 M 202.021 195.750 L 197.673 208.500 207.468 223.819 C 212.855 232.244, 217.611 238.769, 218.037 238.319 C 223.050 233.018, 230.886 222.180, 230.552 221.008 C 230.316 220.178, 229.571 213.504, 228.896 206.176 L 227.669 192.852 217.853 187.926 C 212.454 185.217, 207.661 183, 207.203 183 C 206.744 183, 204.412 188.738, 202.021 195.750" stroke="none" fill="#dc8445" fill-rule="evenodd"/></svg>