<svg xmlns="http://www.w3.org/2000/svg" width="800" height="181" viewBox="0 0 800 181" version="1.1"><path d="" stroke="none" fill="#dc8444" fill-rule="evenodd"/><path d="M 535.122 16.904 C 534.364 17.384, 534.053 18.277, 534.431 18.888 C 534.913 19.669, 532.717 20, 527.059 20 C 522.353 20, 519 19.584, 519 19 C 519 17.889, 516.021 17.671, 513.588 18.605 C 512.721 18.937, 512.260 19.612, 512.565 20.105 C 513.413 21.477, 512.198 21.176, 509.344 19.306 C 506.943 17.733, 506.671 17.730, 505.551 19.262 C 504.134 21.199, 496.890 21.121, 493.212 19.129 C 491.954 18.447, 490.154 18.127, 489.212 18.417 C 488.271 18.707, 483.225 19.232, 478 19.584 C 463.262 20.575, 462.337 20.674, 461.208 21.371 C 460.626 21.731, 459.024 21.513, 457.649 20.886 C 456.171 20.213, 453.992 20.057, 452.324 20.507 C 450.771 20.925, 447.700 21.320, 445.500 21.384 C 443.300 21.448, 440.936 21.865, 440.247 22.311 C 439.558 22.757, 436.979 22.820, 434.517 22.450 C 430.937 21.913, 429.322 22.202, 426.459 23.892 C 423.760 25.484, 422.416 25.758, 421.004 25.002 C 418.559 23.693, 398.309 23.691, 397.500 25 C 397.160 25.550, 395.585 26, 394 26 C 392.415 26, 390.876 26.391, 390.581 26.870 C 390.282 27.353, 388.144 27.372, 385.772 26.913 C 379.757 25.750, 368.632 25.809, 365.443 27.021 C 363.604 27.721, 362.363 27.716, 361.507 27.006 C 360.728 26.359, 359.367 26.299, 357.888 26.846 C 356.585 27.328, 354.246 27.357, 352.692 26.912 C 351.082 26.450, 348.752 26.524, 347.281 27.083 C 345.860 27.623, 339.703 28.293, 333.599 28.572 C 327.494 28.851, 319.800 29.336, 316.500 29.649 C 313.200 29.963, 307.350 30.319, 303.500 30.440 C 293.484 30.755, 257.771 32.878, 249.500 33.650 C 239.972 34.539, 237.937 34.657, 219 35.410 C 209.925 35.771, 199.575 36.359, 196 36.717 C 192.425 37.076, 186.575 37.440, 183 37.528 C 179.425 37.615, 175.375 37.982, 174 38.343 C 172.625 38.705, 164.300 39.199, 155.500 39.442 C 146.700 39.685, 136.125 40.084, 132 40.328 C 127.836 40.575, 123.956 40.334, 123.278 39.787 C 122.442 39.113, 121.559 39.298, 120.485 40.372 C 119.283 41.574, 116.869 41.924, 110.207 41.861 C 102.793 41.792, 95.698 42.888, 85.801 45.631 C 84.867 45.890, 83.837 46.939, 83.512 47.963 C 82.810 50.173, 72.858 52.074, 72.208 50.123 C 71.710 48.631, 69.930 48.672, 70.250 50.167 C 70.546 51.551, 66.654 52.690, 58.750 53.532 C 54.781 53.954, 53 54.577, 53 55.543 C 53 56.313, 51.648 57.293, 49.995 57.721 C 48.343 58.150, 46.997 58.950, 47.004 59.500 C 47.019 60.573, 54.650 60.616, 67 59.612 L 74.500 59.003 67 60.985 C 62.875 62.075, 58.712 62.974, 57.750 62.984 C 56.788 62.993, 56 63.413, 56 63.918 C 56 64.423, 55.743 65.506, 55.429 66.323 C 54.836 67.870, 58.873 67.918, 74.299 66.547 C 81.890 65.872, 80.880 67.251, 72.503 68.999 C 67.092 70.129, 65.592 70.883, 64.255 73.145 C 63.357 74.666, 61.699 76.043, 60.571 76.205 C 59.443 76.367, 58.380 77.238, 58.208 78.140 C 57.910 79.708, 61.974 80.867, 68.399 81.048 C 71.830 81.145, 68.657 82.754, 60.892 84.856 C 53.410 86.882, 41 93.324, 41 95.183 C 41 97.556, 43.270 100, 45.476 100 C 46.799 100, 48.123 100.390, 48.417 100.866 C 49.454 102.543, 45.412 104.838, 36.845 107.437 C 29.389 109.699, 27 111.190, 27 113.582 C 27 113.812, 29.502 114, 32.559 114 C 36.010 114, 37.884 114.379, 37.500 115 C 37.160 115.550, 35.588 116, 34.006 116 C 29.491 116, 25.433 117.833, 26.837 119.237 C 28.964 121.364, 28.219 124.907, 25.500 125.589 C 24.125 125.934, 23 126.683, 23 127.253 C 23 127.938, 25.288 128.041, 29.750 127.556 C 33.462 127.153, 39.875 126.634, 44 126.402 C 48.125 126.171, 52.673 125.581, 54.106 125.093 C 56.486 124.282, 60.100 125.234, 58.962 126.372 C 58.697 126.636, 55.561 127.319, 51.991 127.889 C 48.421 128.460, 42.645 129.393, 39.156 129.962 C 35.667 130.532, 31.533 131.908, 29.971 133.021 C 28.409 134.133, 26.763 134.944, 26.315 134.824 C 24.825 134.422, 21 136.118, 21 137.181 C 21 137.841, 22.569 138.002, 25.250 137.617 C 27.844 137.244, 31.253 137.563, 34 138.436 C 36.475 139.223, 37.704 139.896, 36.731 139.933 C 35.758 139.970, 31.709 141.137, 27.733 142.526 C 16.898 146.312, 12.582 151.864, 22.546 149.199 C 25.012 148.539, 28.121 148, 29.455 148 C 30.790 148, 32.123 147.610, 32.418 147.133 C 32.934 146.297, 39.260 145.076, 45.500 144.608 C 47.150 144.484, 49.294 144.021, 50.265 143.579 C 51.236 143.136, 53.012 143.031, 54.213 143.345 C 55.414 143.659, 56.982 143.430, 57.698 142.836 C 58.637 142.057, 59.399 142.086, 60.429 142.941 C 61.548 143.869, 63.448 143.652, 69.179 141.940 C 75.107 140.170, 77.967 139.866, 84.212 140.343 C 88.769 140.691, 92.168 140.536, 92.521 139.966 C 93.343 138.636, 113.706 138.715, 114.532 140.051 C 115.365 141.399, 167.793 141.143, 168.631 139.788 C 168.951 139.270, 173.102 138.911, 177.856 138.988 C 186.728 139.132, 199.526 138.349, 201.750 137.525 C 202.438 137.271, 203 137.499, 203 138.031 C 203 139.544, 205.722 139.167, 206.335 137.570 C 206.723 136.559, 208.234 136.215, 211.488 136.399 C 214.021 136.542, 216.328 136.278, 216.616 135.813 C 216.903 135.347, 220.370 135.014, 224.319 135.072 C 228.269 135.130, 235.100 134.627, 239.500 133.954 C 243.900 133.281, 251.325 132.531, 256 132.286 C 267.728 131.673, 276.890 130.907, 295.500 128.986 C 300.450 128.475, 310.914 127.619, 318.753 127.085 C 326.593 126.551, 333.343 125.908, 333.753 125.657 C 334.164 125.406, 340.125 124.905, 347 124.544 C 359.122 123.908, 370.028 122.858, 384.500 120.934 C 388.350 120.423, 398.347 119.589, 406.716 119.082 C 415.084 118.575, 422.408 117.866, 422.990 117.506 C 423.573 117.146, 428.201 116.699, 433.275 116.513 C 444.520 116.101, 454.942 114.637, 457.900 113.054 C 459.335 112.285, 463.080 112.052, 468.672 112.381 C 475.336 112.774, 477.764 112.545, 479.583 111.354 C 481.475 110.114, 482.834 110.016, 486.694 110.839 C 490.105 111.567, 491.851 111.539, 492.813 110.740 C 493.585 110.099, 498.914 109.528, 505.329 109.398 C 511.473 109.274, 524.600 108.432, 534.500 107.526 C 544.400 106.621, 556.100 105.887, 560.500 105.896 C 564.900 105.905, 572.550 105.755, 577.500 105.563 C 599.972 104.693, 680.873 104.975, 685.834 105.941 C 689.516 106.658, 691.768 106.659, 693.105 105.944 C 694.170 105.374, 695.443 105.156, 695.934 105.459 C 697.019 106.129, 724.131 107.211, 744 107.377 C 765.280 107.555, 763.390 105.901, 739.500 103.440 C 728.500 102.306, 718.375 100.873, 717 100.253 C 715.625 99.634, 712.821 98.855, 710.769 98.522 C 707.669 98.019, 707.077 97.543, 707.269 95.708 C 707.472 93.772, 707.007 93.490, 703.500 93.415 C 692.986 93.193, 676.876 91.609, 676.342 90.744 C 674.765 88.192, 685.086 86.941, 690.557 89.021 C 692.331 89.696, 693.648 89.707, 694.435 89.054 C 695.090 88.510, 697.251 88.329, 699.236 88.651 C 701.934 89.089, 702.699 89.622, 702.262 90.760 C 701.773 92.035, 702.316 92.164, 705.589 91.552 C 707.740 91.150, 710.050 90.367, 710.722 89.811 C 711.432 89.225, 722.339 88.581, 736.722 88.276 C 754.904 87.891, 762.219 87.385, 764.200 86.376 C 766.009 85.454, 770.548 85, 777.950 85 C 784.300 85, 789 84.594, 789 84.045 C 789 82.941, 785.920 82.382, 768.755 80.365 C 764.342 79.847, 764.052 79.640, 764.613 77.404 C 765.150 75.268, 764.884 75, 762.234 75 C 760.594 75, 757.422 74.355, 755.186 73.566 C 752.694 72.686, 746.551 72.060, 739.311 71.947 C 732.815 71.846, 725.475 71.364, 723 70.875 C 719.073 70.100, 705.637 69.675, 654.801 68.720 C 641.482 68.470, 639.220 67.524, 642.807 63.705 C 646.131 60.167, 656.939 56.857, 665.084 56.883 C 669.816 56.898, 672 56.525, 671.999 55.702 C 671.999 54.898, 669.476 54.399, 664.373 54.196 C 659.404 53.997, 656.245 53.388, 655.302 52.445 C 654.242 51.385, 652.742 51.189, 649.678 51.709 C 647.380 52.099, 644.375 52.307, 643 52.171 C 641.625 52.034, 638.700 51.978, 636.500 52.046 C 629.156 52.271, 617.540 52.420, 614 52.333 C 612.075 52.286, 606.450 52.149, 601.500 52.028 C 575.182 51.384, 547.235 51.811, 546.582 52.867 C 545.965 53.866, 536.014 53.626, 535.947 52.611 C 535.915 52.122, 538.632 50.620, 541.985 49.272 C 546.707 47.375, 548.396 47.084, 549.477 47.981 C 550.535 48.859, 551.401 48.856, 553.058 47.969 C 554.261 47.325, 556.474 47.045, 557.976 47.345 C 559.479 47.646, 561.151 47.449, 561.691 46.909 C 562.232 46.368, 566.022 45.806, 570.114 45.660 C 574.207 45.513, 578.067 45.077, 578.693 44.689 C 579.320 44.302, 580.902 44.392, 582.209 44.889 C 583.814 45.499, 585.629 45.355, 587.793 44.445 C 590.846 43.161, 592.194 41, 589.941 41 C 589.359 41, 589.124 40.608, 589.420 40.129 C 590.057 39.099, 582.986 37.707, 578 37.880 C 576.075 37.947, 570.225 38.234, 565 38.517 C 559.775 38.801, 547.850 39.173, 538.500 39.345 C 529.150 39.517, 520.748 39.995, 519.828 40.406 C 518.909 40.817, 517.248 40.668, 516.139 40.074 C 514.805 39.360, 513.911 39.334, 513.502 39.997 C 513.161 40.549, 509.248 41, 504.807 41 C 500.366 41, 494.933 41.539, 492.735 42.197 C 489.011 43.313, 488.607 43.233, 486.820 41.026 C 484.959 38.727, 484.887 38.717, 484.373 40.681 C 483.890 42.529, 482.754 42.762, 471.172 43.381 C 464.202 43.753, 456.925 44.475, 455 44.984 C 453.075 45.493, 447.900 46.152, 443.500 46.448 C 439.100 46.744, 429.650 47.450, 422.500 48.016 C 415.350 48.582, 405.423 49.180, 400.440 49.346 C 395.457 49.512, 390.926 49.928, 390.370 50.271 C 389.815 50.614, 386.751 50.088, 383.560 49.101 C 376.283 46.849, 377.974 45.888, 390 45.441 C 394.675 45.268, 401.462 44.651, 405.083 44.070 C 408.703 43.490, 419.053 42.550, 428.083 41.981 C 442.393 41.079, 448.981 40.508, 468.500 38.478 C 470.700 38.250, 474.075 38.115, 476 38.180 C 477.925 38.245, 480.400 38.235, 481.500 38.157 C 482.600 38.080, 490.250 37.578, 498.500 37.043 C 506.750 36.507, 517.355 35.604, 522.068 35.035 C 526.780 34.466, 532.877 34, 535.618 34 C 538.358 34, 541.140 33.460, 541.800 32.800 C 542.733 31.867, 543 31.892, 543 32.913 C 543 33.847, 543.941 34.060, 546.250 33.652 C 548.038 33.336, 555.982 32.855, 563.905 32.583 C 571.885 32.309, 578.777 31.623, 579.355 31.045 C 580.545 29.855, 583.361 29.606, 582.652 30.753 C 582.008 31.796, 594.796 32.196, 604.750 31.444 C 609.288 31.101, 613 30.411, 613 29.910 C 613 29.410, 609.625 29, 605.500 29 C 601.375 29, 598 28.571, 598 28.047 C 598 27.491, 600.084 27.341, 603 27.686 C 606.421 28.092, 608 27.919, 608 27.139 C 608 26.513, 607.250 26, 606.333 26 C 605.417 26, 604.917 25.749, 605.224 25.443 C 605.857 24.809, 623.232 24.163, 656 23.554 C 668.375 23.325, 679.513 23.106, 680.750 23.068 C 681.987 23.031, 683 22.602, 683 22.117 C 683 21.631, 681.987 20.891, 680.750 20.472 C 678.511 19.715, 660.766 18.002, 656 18.082 C 654.625 18.106, 652.600 18.095, 651.500 18.060 C 639.895 17.684, 636.309 17.377, 635.206 16.664 C 634.459 16.181, 633.335 16.307, 632.546 16.962 C 631.667 17.691, 626.777 18.043, 618.840 17.949 C 601.246 17.739, 598.644 17.594, 597.334 16.743 C 596.693 16.326, 594.982 16.437, 593.532 16.988 C 592.082 17.539, 580.641 18.237, 568.107 18.538 C 548.335 19.014, 545.147 18.882, 544.036 17.543 C 542.650 15.873, 537.350 15.492, 535.122 16.904 M 351 48.481 C 344.125 49.154, 338.050 49.842, 337.500 50.011 C 336.950 50.180, 335.695 49.966, 334.710 49.536 C 333.726 49.107, 330.327 49.266, 327.158 49.889 C 323.989 50.513, 317.595 50.962, 312.948 50.888 C 301.212 50.702, 291 52.181, 291 54.067 C 291 55.193, 302.677 55.332, 303.367 54.215 C 303.875 53.393, 313.483 53.635, 315.895 54.531 C 316.662 54.815, 318.125 54.292, 319.147 53.367 C 320.729 51.936, 321.579 51.857, 324.858 52.839 C 327.686 53.687, 330.012 53.706, 333.605 52.913 C 336.297 52.319, 340.402 51.887, 342.726 51.955 C 345.104 52.023, 348.016 51.380, 349.384 50.484 C 350.995 49.428, 352.034 49.247, 352.466 49.946 C 353.172 51.087, 367.733 51.403, 372.811 50.388 C 374.495 50.051, 376.112 49.151, 376.405 48.388 C 377.067 46.662, 369.287 46.691, 351 48.481 M 579.441 129.144 C 577.273 129.498, 563.575 130.088, 549 130.455 C 534.425 130.822, 520.171 131.570, 517.325 132.116 C 513.514 132.849, 511.640 132.792, 510.214 131.902 C 508.724 130.971, 507.222 130.958, 503.696 131.846 C 501.176 132.481, 495.151 133.003, 490.307 133.006 C 485.463 133.009, 479.925 133.442, 478 133.968 C 476.075 134.495, 468.650 135.117, 461.500 135.350 C 454.350 135.584, 444.675 136.257, 440 136.846 C 435.325 137.436, 424.750 138.204, 416.500 138.553 C 408.250 138.902, 399.925 139.258, 398 139.344 C 396.075 139.430, 394.050 139.777, 393.500 140.115 C 392.950 140.453, 388.450 140.773, 383.500 140.826 C 369.756 140.974, 338.627 143.096, 337.500 143.961 C 336.950 144.384, 326.600 145.009, 314.500 145.350 C 302.400 145.692, 288.450 146.180, 283.500 146.436 C 260.372 147.632, 241.283 148.307, 228 148.399 C 220.025 148.455, 212.840 148.925, 212.032 149.444 C 211.225 149.963, 201.325 150.465, 190.032 150.561 C 178.740 150.656, 167.475 151.222, 165 151.818 C 159.549 153.131, 142.266 155.023, 135.845 155.010 C 133.285 155.004, 125.185 155.751, 117.845 156.668 C 110.505 157.586, 102.045 158.283, 99.044 158.217 C 96.042 158.152, 93.117 158.477, 92.544 158.941 C 91.155 160.062, 82.156 161.714, 73.500 162.437 C 61.983 163.399, 51.626 165.221, 49.527 166.653 C 48.443 167.394, 46.305 168, 44.777 168 C 43.006 168, 42 168.530, 42 169.464 C 42 170.554, 43.212 170.907, 46.750 170.849 C 49.362 170.806, 51.950 170.417, 52.500 169.984 C 53.050 169.552, 59.350 168.684, 66.500 168.056 C 73.650 167.428, 83.325 166.450, 88 165.884 C 92.675 165.317, 98.750 164.724, 101.500 164.567 C 104.250 164.410, 115.050 163.751, 125.500 163.104 C 149.441 161.622, 176 161.145, 176 162.197 C 176 162.639, 173.386 163, 170.191 163 C 166.632 163, 163.631 163.569, 162.441 164.468 C 160.698 165.787, 161.687 165.940, 172.144 165.968 C 185.158 166.004, 204.043 164.335, 205.357 163.034 C 206.735 161.670, 202.276 159.782, 200.245 160.869 C 199.280 161.386, 194.892 161.898, 190.495 162.008 C 170.107 162.516, 179.163 160.929, 207.500 159.028 C 228.199 157.639, 232.290 157.316, 252 155.512 C 271.481 153.730, 294.403 152.205, 312.500 151.488 C 320.200 151.183, 328.300 150.515, 330.500 150.002 C 335.316 148.880, 389.844 146.511, 390.719 147.385 C 391.057 147.723, 390.107 148, 388.608 148 C 386.974 148, 386.140 148.417, 386.525 149.041 C 387.247 150.209, 391.145 149.283, 392.159 147.703 C 392.576 147.054, 393.421 147.278, 394.455 148.312 C 395.688 149.546, 397.252 149.819, 400.796 149.421 C 410.887 148.287, 412.187 147.929, 411.615 146.439 C 411.292 145.598, 411.660 145, 412.500 145 C 413.367 145, 413.709 145.595, 413.362 146.500 C 412.744 148.110, 414.035 148.365, 417.750 147.370 C 420.867 146.534, 420.570 145.033, 417.250 144.843 C 415.738 144.756, 417.650 144.387, 421.500 144.022 C 427.045 143.497, 428.754 143.666, 429.722 144.833 C 430.790 146.120, 431.027 146.094, 431.589 144.628 C 432.111 143.269, 432.516 143.183, 433.714 144.177 C 434.910 145.170, 435.376 145.079, 436.146 143.703 C 436.671 142.766, 437.865 142.036, 438.800 142.079 C 439.842 142.127, 440.016 142.353, 439.250 142.662 C 436.896 143.612, 437.998 145, 441.107 145 C 443.458 145, 444.074 144.635, 443.638 143.500 C 443.220 142.410, 443.754 142, 445.590 142 C 447.021 142, 447.850 142.434, 447.500 143 C 447.122 143.611, 448.656 144, 451.441 144 C 455.760 144, 457.474 142.781, 454.750 141.646 C 454.063 141.360, 457.438 141.150, 462.250 141.181 C 467.063 141.211, 471 141.633, 471 142.118 C 471 142.603, 471.498 143, 472.107 143 C 472.716 143, 472.977 142.381, 472.686 141.625 C 472.304 140.630, 473.417 140.078, 476.719 139.625 C 483.770 138.659, 494 138.881, 494 140 C 494 140.550, 496.025 141, 498.500 141 C 501.670 141, 503 140.590, 503 139.614 C 503 138.205, 511.608 136.274, 512.758 137.425 C 513.075 137.741, 512.107 138, 510.608 138 C 508.879 138, 508.131 138.403, 508.562 139.101 C 509.369 140.406, 515.084 139.483, 516.070 137.888 C 516.800 136.706, 520.537 136.248, 535 135.569 C 543.167 135.186, 563.225 134.735, 569.500 134.794 C 593.061 135.014, 595.269 134.914, 598.733 133.467 C 601.704 132.226, 602.964 132.157, 605.263 133.109 C 608.224 134.335, 610.852 133.188, 609.626 131.204 C 608.352 129.142, 587.967 127.751, 579.441 129.144 M 400.500 146 L 396.500 146.716 400 146.788 C 401.925 146.827, 404.400 146.473, 405.500 146 C 407.856 144.987, 406.155 144.987, 400.500 146 M 377.166 148.876 C 376.102 149.551, 376.169 149.851, 377.498 150.361 C 380.085 151.354, 381 151.129, 381 149.500 C 381 147.849, 379.239 147.562, 377.166 148.876 M 361.750 149.716 C 360.238 149.945, 359 150.614, 359 151.202 C 359 151.899, 360.616 152.050, 363.640 151.636 C 366.191 151.286, 369.566 151, 371.140 151 C 372.713 151, 374 150.550, 374 150 C 374 149.028, 367.314 148.873, 361.750 149.716 M 346.500 151 C 344.850 151.420, 340.688 151.817, 337.250 151.882 C 333.373 151.955, 331 152.425, 331 153.120 C 331 153.927, 334.573 154.037, 343.750 153.516 C 350.762 153.117, 356.658 152.643, 356.850 152.462 C 357.043 152.281, 356.904 151.653, 356.541 151.067 C 355.804 149.874, 351.051 149.842, 346.500 151 M 305.250 154.224 C 299.449 155.444, 299.890 156.577, 305.999 156.153 C 308.750 155.963, 311 155.427, 311 154.963 C 311 153.486, 309.613 153.308, 305.250 154.224 M 284.250 155.651 C 281.925 156.610, 282.981 158.135, 285.750 157.816 C 287.262 157.642, 288.411 157.050, 288.303 156.500 C 288.073 155.335, 286.044 154.910, 284.250 155.651 M 275 157 C 275 157.550, 276.350 158, 278 158 C 279.650 158, 281 157.550, 281 157 C 281 156.450, 279.650 156, 278 156 C 276.350 156, 275 156.450, 275 157 M 254.750 157.689 C 252.715 158.221, 252.443 159.634, 254.250 160.282 C 255.969 160.898, 259.191 159.118, 258.469 157.950 C 257.856 156.958, 257.613 156.941, 254.750 157.689 M 263 158 C 263 158.550, 264.350 159, 266 159 C 267.650 159, 269 158.550, 269 158 C 269 157.450, 267.650 157, 266 157 C 264.350 157, 263 157.450, 263 158 M 233.565 159.895 C 232.901 160.970, 235.798 162.243, 237.090 161.444 C 237.591 161.135, 238 160.459, 238 159.941 C 238 158.743, 234.301 158.704, 233.565 159.895 M 207.470 161.048 C 207.087 161.667, 207.173 162.573, 207.660 163.060 C 208.836 164.236, 224.500 162.785, 224.500 161.500 C 224.500 160.058, 208.347 159.629, 207.470 161.048 M 135.684 165.195 C 133.438 166.583, 136.613 168.137, 141.036 167.814 C 147.006 167.379, 147.312 165.306, 141.474 164.841 C 138.932 164.639, 136.326 164.798, 135.684 165.195 M 119.250 165.662 C 115.169 167.309, 120.520 169.178, 126.418 168.166 C 132.604 167.103, 132.203 164.985, 125.833 165.079 C 122.900 165.122, 119.938 165.385, 119.250 165.662 M 104.500 167 C 104.114 167.625, 106.156 168, 109.941 168 C 113.314 168, 116 167.557, 116 167 C 116 166.450, 113.552 166, 110.559 166 C 107.566 166, 104.840 166.450, 104.500 167 M 95 168 C 95 168.550, 96.350 169, 98 169 C 99.650 169, 101 168.550, 101 168 C 101 167.450, 99.650 167, 98 167 C 96.350 167, 95 167.450, 95 168" stroke="none" fill="#dc843c" fill-rule="evenodd"/></svg>