<svg xmlns="http://www.w3.org/2000/svg" width="330" height="359" viewBox="0 0 330 359" version="1.1"><path d="M 154 23.531 C 154 31.148, 152.217 31.624, 146.135 25.633 L 141.424 20.993 137.222 25.274 L 133.020 29.555 143.537 40.028 L 154.054 50.500 153.777 60.988 C 153.555 69.378, 153.200 71.529, 152 71.741 C 151.175 71.886, 143.037 65.756, 133.917 58.119 L 117.333 44.233 113.667 48.754 C 111.650 51.241, 110 53.559, 110 53.905 C 110 54.251, 119.914 62.784, 132.032 72.868 L 154.064 91.202 153.782 102.339 C 153.541 111.838, 153.253 113.523, 151.820 113.798 C 150.895 113.975, 142.017 108.693, 132.090 102.060 C 121.724 95.134, 113.033 90, 111.675 90 C 110.374 90, 108.565 90.823, 107.655 91.829 C 106.217 93.417, 106 96.638, 106 116.360 C 106 136.432, 105.811 139.135, 104.368 139.689 C 103.417 140.054, 99.245 138.583, 94.368 136.165 L 86 132.015 86 111.007 L 86 90 80 90 L 74 90 74 106.531 C 74 120.897, 73.786 123.145, 72.368 123.689 C 71.417 124.054, 67.245 122.583, 62.368 120.165 L 54 116.015 54 103.007 L 54 90 48 90 L 42 90 42 98.531 C 42 105.505, 41.701 107.177, 40.365 107.690 C 39.402 108.060, 34.953 106.441, 29.530 103.747 L 20.330 99.177 17.569 104.806 C 16.050 107.903, 15.189 110.579, 15.654 110.754 C 20.532 112.590, 32.567 119.864, 32.797 121.115 C 32.985 122.135, 31.232 123.926, 28.047 125.970 C 25.271 127.751, 23 129.643, 23 130.174 C 23 130.705, 24.370 133.131, 26.045 135.565 L 29.090 139.991 38.007 133.996 C 42.911 130.698, 47.627 128, 48.487 128 C 51.119 128, 64 134.939, 64 136.358 C 64 138.277, 61.808 139.928, 49.750 147.095 C 43.838 150.609, 39 153.834, 39 154.262 C 39 154.887, 43.417 162.498, 44.560 163.842 C 44.720 164.030, 52.433 159.643, 61.700 154.092 C 70.968 148.542, 79.337 144, 80.300 144 C 83.071 144, 96 150.883, 96 152.358 C 96 154.293, 93.819 155.913, 81 163.500 C 66.966 171.806, 66 172.611, 66 176 C 66 179.389, 66.966 180.194, 81 188.500 C 93.819 196.087, 96 197.707, 96 199.642 C 96 201.117, 83.071 208, 80.300 208 C 79.337 208, 70.968 203.458, 61.700 197.908 C 52.433 192.357, 44.720 187.970, 44.560 188.158 C 43.417 189.502, 39 197.113, 39 197.738 C 39 198.166, 43.837 201.391, 49.750 204.905 C 61.808 212.072, 64 213.723, 64 215.642 C 64 217.061, 51.119 224, 48.487 224 C 47.627 224, 42.911 221.302, 38.007 218.004 L 29.090 212.009 26.045 216.435 C 24.370 218.869, 23 221.295, 23 221.826 C 23 222.357, 25.271 224.249, 28.047 226.030 C 31.232 228.074, 32.985 229.865, 32.797 230.885 C 32.567 232.136, 20.532 239.410, 15.654 241.246 C 15.189 241.421, 16.050 244.097, 17.569 247.194 L 20.330 252.823 29.530 248.253 C 34.953 245.559, 39.402 243.940, 40.365 244.310 C 41.701 244.823, 42 246.495, 42 253.469 L 42 262 48 262 L 54 262 54 248.993 L 54 235.985 62.368 231.835 C 67.245 229.417, 71.417 227.946, 72.368 228.311 C 73.786 228.855, 74 231.103, 74 245.469 L 74 262 80 262 L 86 262 86 240.993 L 86 219.985 94.368 215.835 C 99.245 213.417, 103.417 211.946, 104.368 212.311 C 105.811 212.865, 106 215.581, 106 235.814 C 106 256.706, 106.159 258.834, 107.829 260.345 C 108.835 261.255, 110.644 262, 111.849 262 C 113.054 262, 122.163 256.573, 132.090 249.940 C 142.017 243.307, 150.895 238.025, 151.820 238.202 C 153.253 238.477, 153.541 240.162, 153.782 249.661 L 154.064 260.798 132.032 279.132 C 119.914 289.216, 110 297.749, 110 298.095 C 110 298.441, 111.650 300.759, 113.667 303.246 L 117.333 307.767 133.917 293.881 C 143.037 286.244, 151.175 280.114, 152 280.259 C 153.200 280.471, 153.555 282.622, 153.777 291.012 L 154.054 301.500 143.537 311.972 L 133.020 322.445 137.222 326.726 L 141.424 331.007 146.135 326.367 C 152.217 320.376, 154 320.852, 154 328.469 L 154 334 160 334 L 166 334 166 328.469 C 166 320.852, 167.783 320.376, 173.865 326.367 L 178.576 331.007 182.778 326.726 L 186.980 322.445 176.463 311.972 L 165.946 301.500 166.223 291.012 C 166.445 282.622, 166.800 280.471, 168 280.259 C 168.825 280.114, 176.963 286.244, 186.083 293.881 L 202.667 307.767 206.333 303.246 C 208.350 300.759, 210 298.441, 210 298.095 C 210 297.749, 200.086 289.216, 187.968 279.132 L 165.936 260.798 166.218 249.661 C 166.459 240.162, 166.747 238.477, 168.180 238.202 C 169.105 238.025, 177.983 243.307, 187.910 249.940 C 198.276 256.866, 206.967 262, 208.325 262 C 209.626 262, 211.435 261.177, 212.345 260.171 C 213.783 258.583, 214 255.362, 214 235.640 C 214 215.568, 214.189 212.865, 215.632 212.311 C 216.583 211.946, 220.755 213.417, 225.632 215.835 L 234 219.985 234 240.993 L 234 262 240 262 L 246 262 246 245.469 C 246 231.103, 246.214 228.855, 247.632 228.311 C 248.583 227.946, 252.755 229.417, 257.632 231.835 L 266 235.985 266 248.993 L 266 262 272 262 L 278 262 278 253.469 C 278 246.495, 278.299 244.823, 279.635 244.310 C 280.598 243.940, 285.047 245.559, 290.470 248.253 L 299.670 252.823 302.431 247.194 C 303.950 244.097, 304.811 241.421, 304.346 241.246 C 299.468 239.410, 287.433 232.136, 287.203 230.885 C 287.015 229.865, 288.768 228.074, 291.953 226.030 C 294.729 224.249, 297 222.357, 297 221.826 C 297 221.295, 295.630 218.869, 293.955 216.435 L 290.910 212.009 281.993 218.004 C 277.089 221.302, 272.373 224, 271.513 224 C 270.654 224, 266.782 222.405, 262.910 220.455 C 257.853 217.908, 255.962 216.438, 256.194 215.234 C 256.448 213.911, 267.778 206.193, 279.958 199.043 C 281.212 198.307, 281.160 197.711, 279.581 194.781 C 275.372 186.964, 276.960 186.731, 258.298 197.909 C 249.032 203.459, 240.663 208, 239.700 208 C 236.929 208, 224 201.117, 224 199.642 C 224 197.707, 226.181 196.087, 239 188.500 C 253.034 180.194, 254 179.389, 254 176 C 254 172.611, 253.034 171.806, 239 163.500 C 226.181 155.913, 224 154.293, 224 152.358 C 224 150.883, 236.929 144, 239.700 144 C 240.663 144, 249.032 148.542, 258.300 154.092 C 267.567 159.643, 275.280 164.030, 275.440 163.842 C 276.583 162.498, 281 154.887, 281 154.262 C 281 153.834, 276.163 150.609, 270.250 147.095 C 258.192 139.928, 256 138.277, 256 136.358 C 256 134.939, 268.881 128, 271.513 128 C 272.373 128, 277.089 130.698, 281.993 133.996 L 290.910 139.991 293.955 135.565 C 295.630 133.131, 297 130.705, 297 130.174 C 297 129.643, 294.729 127.751, 291.953 125.970 C 288.768 123.926, 287.015 122.135, 287.203 121.115 C 287.433 119.864, 299.468 112.590, 304.346 110.754 C 304.811 110.579, 303.950 107.903, 302.431 104.806 L 299.670 99.177 290.470 103.747 C 285.047 106.441, 280.598 108.060, 279.635 107.690 C 278.299 107.177, 278 105.505, 278 98.531 L 278 90 272 90 L 266 90 266 103.007 L 266 116.015 257.632 120.165 C 252.755 122.583, 248.583 124.054, 247.632 123.689 C 246.214 123.145, 246 120.897, 246 106.531 L 246 90 240 90 L 234 90 234 111.007 L 234 132.015 225.632 136.165 C 220.755 138.583, 216.583 140.054, 215.632 139.689 C 214.189 139.135, 214 136.419, 214 116.186 C 214 95.294, 213.841 93.166, 212.171 91.655 C 211.165 90.745, 209.356 90, 208.151 90 C 206.946 90, 197.837 95.427, 187.910 102.060 C 177.983 108.693, 169.105 113.975, 168.180 113.798 C 166.747 113.523, 166.459 111.838, 166.218 102.339 L 165.936 91.202 187.968 72.868 C 200.086 62.784, 210 54.251, 210 53.905 C 210 53.559, 208.350 51.241, 206.333 48.754 L 202.667 44.233 186.083 58.119 C 176.963 65.756, 168.825 71.886, 168 71.741 C 166.800 71.529, 166.445 69.378, 166.223 60.988 L 165.946 50.500 176.463 40.028 L 186.980 29.555 182.778 25.274 L 178.576 20.993 173.865 25.633 C 167.783 31.624, 166 31.148, 166 23.531 L 166 18 160 18 L 154 18 154 23.531 M 118.667 110.667 C 118.300 111.033, 118 119.585, 118 129.671 L 118 148.008 134.354 156.167 C 144.446 161.202, 151.338 164.084, 152.354 163.694 C 153.786 163.145, 154 161.003, 154 147.189 L 154 131.315 138.005 120.658 C 122.726 110.477, 120.175 109.159, 118.667 110.667 M 181.750 120.704 L 166 131.316 166 147.189 C 166 161.003, 166.214 163.145, 167.646 163.694 C 168.662 164.084, 175.562 161.198, 185.668 156.156 L 202.044 147.986 201.772 129.243 C 201.512 111.336, 201.411 110.491, 199.500 110.296 C 198.369 110.180, 190.653 114.705, 181.750 120.704 M 98.750 167.057 C 90.348 172.098, 87 174.649, 87 176.007 C 87 177.367, 90.347 179.908, 98.785 184.953 C 105.266 188.829, 111.347 192, 112.298 192 C 113.249 192, 120.321 188.847, 128.013 184.993 C 138.951 179.514, 142 177.554, 142 176 C 142 174.446, 138.951 172.486, 128.013 167.007 C 120.321 163.153, 113.233 160.001, 112.263 160.003 C 111.293 160.005, 105.213 163.179, 98.750 167.057 M 191.750 167.059 C 181.032 172.480, 178 174.452, 178 176 C 178 177.553, 181.050 179.515, 191.987 184.993 C 199.679 188.847, 206.751 192, 207.702 192 C 208.653 192, 214.734 188.829, 221.215 184.953 C 229.677 179.894, 233 177.369, 233 176 C 233 174.631, 229.677 172.106, 221.215 167.047 C 214.734 163.171, 208.546 160.024, 207.465 160.052 C 206.384 160.081, 199.313 163.234, 191.750 167.059 M 133.728 196.050 L 117.956 204.034 118.228 222.754 C 118.469 239.308, 118.693 241.511, 120.169 241.795 C 121.086 241.971, 129.085 237.286, 137.943 231.384 L 154.048 220.653 153.774 204.576 C 153.514 189.342, 153.395 188.489, 151.500 188.283 C 150.400 188.164, 142.403 191.659, 133.728 196.050 M 166.667 188.667 C 166.300 189.033, 166 196.387, 166 205.009 L 166 220.685 182.081 231.400 C 190.926 237.293, 198.914 241.971, 199.831 241.795 C 201.307 241.511, 201.531 239.308, 201.772 222.754 L 202.044 204.034 186.034 196.017 C 170.416 188.197, 168.039 187.294, 166.667 188.667" stroke="none" fill="#EAEAEA" fill-rule="evenodd"/></svg>