<svg xmlns="http://www.w3.org/2000/svg" width="732" height="133" viewBox="0 0 732 133" version="1.1"><path d="" stroke="none" fill="#e08444" fill-rule="evenodd"/><path d="M 67.683 20.750 C 58.665 29.963, 39.770 49.425, 25.693 64 L 0.098 90.500 0.049 106.750 C 0.021 115.997, 0.396 123, 0.919 123 C 1.424 123, 4.687 119.913, 8.169 116.139 C 11.651 112.366, 30.653 92.576, 50.396 72.162 L 86.291 35.046 99.896 47.960 C 107.378 55.062, 128.350 75.295, 146.500 92.922 C 168.941 114.717, 180.189 124.976, 181.655 124.986 C 183.190 124.996, 194.557 113.856, 221.182 86.250 C 241.736 64.938, 261.086 44.817, 264.182 41.537 L 269.811 35.574 283.583 48.537 C 291.158 55.667, 308.430 72.300, 321.967 85.500 C 362.899 125.416, 362.440 125, 365.646 125 C 368.042 125, 371.276 122.206, 385.034 108.250 C 394.115 99.037, 406.696 86.100, 412.992 79.500 C 419.288 72.900, 431.159 60.648, 439.372 52.274 L 454.305 37.047 480.679 62.774 C 519.060 100.212, 545.056 124.960, 547.217 126.116 C 548.633 126.874, 549.804 126.673, 551.882 125.314 C 553.408 124.316, 567.222 110.452, 582.578 94.505 C 597.935 78.558, 616.641 59.242, 624.147 51.581 L 637.793 37.652 659.882 59.076 C 701.031 98.987, 730.388 127, 731.065 127 C 732.386 127, 732.976 119.272, 732.821 104 C 732.734 95.475, 732.486 90.213, 732.268 92.307 L 731.872 96.114 708.934 73.807 C 654.271 20.648, 639.611 7, 637.172 7 C 634.279 7, 633.486 7.779, 585.516 57.768 L 548.793 96.036 528.903 76.768 C 468.242 18.003, 455.436 6, 453.397 6 C 451.932 6, 444.027 13.522, 427.913 30.250 C 415.066 43.588, 395.727 63.606, 384.939 74.736 L 365.323 94.972 339.342 69.736 C 280.232 12.321, 272.362 5, 269.755 5 C 267.424 5, 247.513 25.041, 187.976 87.314 L 181.452 94.138 155.976 69.459 C 93.507 8.943, 88.236 4, 86.168 4 C 84.784 4, 78.540 9.658, 67.683 20.750 M 0.409 106.500 C 0.408 115.850, 0.558 119.810, 0.743 115.299 C 0.928 110.789, 0.929 103.139, 0.745 98.299 C 0.562 93.460, 0.410 97.150, 0.409 106.500" stroke="none" fill="#D98341" fill-rule="evenodd"/></svg>